<svg width="222" height="62" viewBox="0 0 222 62" fill="none" xmlns="http://www.w3.org/2000/svg">
<path fill-rule="evenodd" clip-rule="evenodd" d="M7.26541 48.3625H4.68641C2.54941 48.3625 0.816406 46.6295 0.816406 44.4925V17.3265C0.816406 15.1895 2.54941 13.4565 4.68641 13.4565H6.84141C8.97841 13.4565 10.7114 15.1895 10.7114 17.3265V44.9165C10.7114 46.8195 9.16841 48.3625 7.26541 48.3625Z" fill="#4586FF"/>
<path fill-rule="evenodd" clip-rule="evenodd" d="M61.6204 61.8185H59.0414C56.9044 61.8185 55.1714 60.0855 55.1714 57.9485V3.8705C55.1714 1.7335 56.9044 0.00050354 59.0414 0.00050354H61.1964C63.3334 0.00050354 65.0664 1.7335 65.0664 3.8705V58.3725C65.0664 60.2755 63.5234 61.8185 61.6204 61.8185Z" fill="#4586FF"/>
<path fill-rule="evenodd" clip-rule="evenodd" d="M25.3838 61.8185H22.8048C20.6678 61.8185 18.9348 60.0855 18.9348 57.9485V3.8705C18.9348 1.7335 20.6678 0.00050354 22.8048 0.00050354H24.9598C27.0968 0.00050354 28.8298 1.7335 28.8298 3.8705V58.3725C28.8298 60.2755 27.2868 61.8185 25.3838 61.8185Z" fill="#4586FF"/>
<path fill-rule="evenodd" clip-rule="evenodd" d="M79.7388 48.3625H77.1598C75.0228 48.3625 73.2898 46.6295 73.2898 44.4925V17.3265C73.2898 15.1895 75.0228 13.4565 77.1598 13.4565H79.3148C81.4518 13.4565 83.1848 15.1895 83.1848 17.3265V44.9165C83.1848 46.8195 81.6418 48.3625 79.7388 48.3625Z" fill="#4586FF"/>
<path fill-rule="evenodd" clip-rule="evenodd" d="M43.502 49.4572H40.923C38.786 49.4572 37.053 47.7242 37.053 45.5872V19.1922C37.053 17.0542 38.786 15.3222 40.923 15.3222H43.078C45.215 15.3222 46.948 17.0542 46.948 19.1922V46.0112C46.948 47.9142 45.405 49.4572 43.502 49.4572Z" fill="#4586FF"/>
<path fill-rule="evenodd" clip-rule="evenodd" d="M126.797 33.8614L124.758 29.4334H124.731L122.718 33.8614H126.797ZM115.767 39.6044L124.167 21.5434C124.248 21.3824 124.436 21.2484 124.623 21.2484H124.892C125.079 21.2484 125.267 21.3824 125.348 21.5434L133.748 39.6044C133.909 39.9534 133.694 40.3024 133.292 40.3024H130.313C129.83 40.3024 129.615 40.1414 129.373 39.6314L128.407 37.5114H121.108L120.142 39.6584C120.008 39.9804 119.712 40.3024 119.176 40.3024H116.223C115.821 40.3024 115.606 39.9534 115.767 39.6044Z" fill="#4586FF"/>
<path fill-rule="evenodd" clip-rule="evenodd" d="M154.841 21.2483C157.525 21.2483 159.511 22.0803 161.336 23.7443C161.577 23.9593 161.577 24.2803 161.362 24.4953L159.269 26.6693C159.081 26.8573 158.786 26.8573 158.598 26.6693C157.605 25.7833 156.29 25.3003 154.975 25.3003C151.943 25.3003 149.715 27.8233 149.715 30.8293C149.715 33.8073 151.97 36.2763 155.002 36.2763C156.263 36.2763 157.632 35.8203 158.598 34.9883C158.786 34.8273 159.135 34.8273 159.296 35.0153L161.389 37.2423C161.577 37.4303 161.55 37.7793 161.362 37.9673C159.537 39.7383 157.23 40.5703 154.841 40.5703C149.474 40.5703 145.153 36.3033 145.153 30.9363C145.153 25.5693 149.474 21.2483 154.841 21.2483Z" fill="#4586FF"/>
<path fill-rule="evenodd" clip-rule="evenodd" d="M177.168 21.6777C177.195 21.4357 177.436 21.2487 177.651 21.2487H178.08C178.215 21.2487 178.456 21.3557 178.537 21.5167L184.763 33.1097H184.816L191.042 21.5167C191.123 21.3557 191.364 21.2487 191.499 21.2487H191.928C192.143 21.2487 192.384 21.4357 192.411 21.6777L195.444 39.7117C195.497 40.0607 195.256 40.3017 194.934 40.3017H191.767C191.525 40.3017 191.284 40.0877 191.257 39.8727L190.049 31.5807H189.996L185.487 40.2757C185.407 40.4367 185.165 40.5707 185.031 40.5707H184.548C184.387 40.5707 184.172 40.4367 184.092 40.2757L179.557 31.5807H179.503L178.322 39.8727C178.295 40.0877 178.08 40.3017 177.812 40.3017H174.645C174.323 40.3017 174.082 40.0607 174.136 39.7117L177.168 21.6777Z" fill="#4586FF"/>
<path fill-rule="evenodd" clip-rule="evenodd" d="M209.613 22.0266C209.613 21.7586 209.828 21.5166 210.123 21.5166H221.233C221.528 21.5166 221.743 21.7586 221.743 22.0266V24.9516C221.743 25.2196 221.528 25.4616 221.233 25.4616H213.799V28.7896H219.918C220.187 28.7896 220.428 29.0306 220.428 29.2996V32.2246C220.428 32.5196 220.187 32.7346 219.918 32.7346H213.799V36.3576H221.233C221.528 36.3576 221.743 36.5986 221.743 36.8666V39.7926C221.743 40.0606 221.528 40.3026 221.233 40.3026H210.123C209.828 40.3026 209.613 40.0606 209.613 39.7926V22.0266Z" fill="#4586FF"/>
</svg>
